<?xml version="1.0" standalone="no"?>
<!DOCTYPE svg PUBLIC "-//W3C//DTD SVG 20010904//EN"
 "http://www.w3.org/TR/2001/REC-SVG-20010904/DTD/svg10.dtd">
<svg version="1.0" xmlns="http://www.w3.org/2000/svg"
 width="2140.000000pt" height="1485.000000pt" viewBox="0 0 2140.000000 1485.000000"
 preserveAspectRatio="xMidYMid meet">
<metadata>
Created by potrace 1.14, written by Peter Selinger 2001-2017
</metadata>
<g transform="translate(0.000000,1485.000000) scale(0.100000,-0.100000)"
fill="#000000" stroke="none">
<path d="M4102 12388 c-7 -7 -12 -8 -12 -3 0 4 -9 0 -20 -10 -11 -10 -20 -24
-20 -30 0 -7 -11 -12 -25 -12 -14 0 -25 3 -25 8 0 5 -4 9 -10 9 -5 0 -10 -7
-10 -16 0 -8 -4 -13 -9 -9 -10 6 -26 -33 -18 -42 3 -2 15 1 27 7 20 11 21 10
15 -12 -8 -25 -22 -38 -44 -38 -11 0 -10 -4 4 -14 16 -12 22 -11 44 10 23 22
41 29 64 25 4 0 7 5 7 13 0 18 27 29 33 13 3 -8 12 -6 27 8 13 11 20 15 17 9
-4 -7 0 -17 7 -23 12 -10 13 -8 9 9 -4 13 0 25 8 31 17 10 0 31 -31 36 -17 2
-19 -1 -14 -22 5 -19 2 -25 -10 -25 -21 0 -21 43 -1 60 16 13 20 30 7 30 -4 0
-13 -5 -20 -12z"/>
<path d="M4230 11983 c69 -71 126 -130 128 -133 2 -2 0 3 -4 13 -8 21 9 22 26
2 7 -8 16 -13 20 -10 13 8 31 -21 24 -39 -7 -17 20 -24 30 -7 3 5 16 7 27 4
19 -5 20 -4 9 17 -10 18 -9 25 3 37 12 13 17 12 38 -9 39 -37 68 -116 32 -87
-15 13 -16 11 -9 -13 8 -36 -6 -36 -46 -2 -20 16 -34 22 -41 15 -5 -5 -16 -7
-23 -4 -21 8 -17 -11 6 -32 11 -10 20 -24 20 -31 0 -7 6 -17 14 -21 7 -4 18
-18 25 -30 6 -13 16 -23 22 -23 6 0 3 7 -5 16 -9 8 -16 20 -16 25 0 17 28 9
44 -13 15 -23 16 -23 31 -3 8 11 20 38 26 60 6 22 16 46 21 53 6 7 8 15 4 19
-3 3 -6 1 -6 -5 0 -7 -6 -12 -14 -12 -13 0 -30 65 -31 119 0 31 -63 68 -92 56
-10 -5 -24 -7 -31 -6 -8 1 -30 -5 -49 -14 -38 -18 -63 -14 -63 9 0 13 4 14 25
4 28 -12 34 -10 39 18 2 11 7 32 12 48 6 26 5 29 -15 23 -11 -3 -23 -1 -27 4
-3 5 -16 2 -29 -7 -14 -9 -31 -14 -39 -11 -10 4 -12 0 -9 -13 4 -15 0 -18 -20
-16 -35 4 -59 25 -52 47 6 18 -25 36 -43 25 -5 -3 -23 8 -41 24 -18 17 -35 30
-39 30 -3 0 50 -57 118 -127z"/>
<path d="M14728 11970 c-262 -30 -486 -150 -628 -338 -247 -325 -291 -855
-106 -1248 59 -125 115 -205 205 -294 219 -217 502 -293 821 -219 126 29 222
80 303 162 l67 68 0 -49 c0 -27 3 -70 6 -96 l7 -46 168 0 169 0 0 540 0 540
-415 0 -415 0 0 -170 0 -170 220 0 220 0 0 -34 c0 -51 -33 -149 -70 -206 -90
-140 -245 -220 -425 -220 -147 0 -249 43 -357 152 -79 79 -135 185 -170 323
-19 77 -23 114 -22 255 1 143 5 178 27 262 76 289 261 447 522 448 228 0 405
-121 461 -317 3 -10 53 -13 209 -13 l205 0 0 26 c0 14 -7 54 -16 88 -56 218
-252 417 -492 501 -149 52 -336 73 -494 55z"/>
<path d="M5036 11935 c-9 -14 -34 -58 -55 -98 -21 -39 -49 -92 -63 -117 -35
-63 -43 -100 -22 -100 14 0 14 -3 4 -15 -9 -11 -10 -19 -3 -26 7 -7 15 -2 26
15 10 15 13 27 7 31 -13 8 -13 25 0 25 6 0 10 -6 10 -12 0 -18 53 -46 81 -43
13 1 30 3 37 4 6 0 12 11 12 22 0 16 -5 20 -20 16 -17 -4 -20 0 -20 30 0 31 3
35 21 30 27 -7 49 1 49 20 0 8 -4 12 -9 8 -5 -3 -13 -1 -16 5 -4 6 -15 8 -26
5 -11 -4 -19 -2 -19 6 0 8 -11 10 -35 6 -19 -3 -37 -1 -40 4 -4 5 -2 9 4 9 6
0 8 6 5 13 -4 12 11 17 64 17 33 0 69 27 77 57 5 20 0 31 -25 53 -20 18 -28
33 -24 44 9 24 -1 19 -20 -9z"/>
<path d="M12773 11903 c-4 -10 -165 -461 -358 -1003 l-351 -985 215 -3 c165
-2 216 1 223 10 4 7 37 102 74 211 l66 197 373 0 373 0 15 -47 c7 -27 36 -121
63 -210 l49 -163 223 0 c209 0 224 1 220 18 -3 9 -155 442 -338 962 -183 520
-339 964 -347 988 l-15 42 -239 0 c-219 0 -240 -2 -246 -17z m373 -845 l121
-388 -258 0 -258 0 8 28 c22 72 244 758 249 767 7 11 -8 55 138 -407z"/>
<path d="M15900 10915 l0 -1005 195 0 195 0 2 681 3 681 184 -681 185 -681
205 0 206 0 185 683 185 682 3 -682 2 -683 195 0 195 0 0 1005 0 1005 -300 0
c-165 0 -300 -3 -300 -7 0 -17 -354 -1449 -360 -1456 -3 -4 -87 323 -186 725
l-181 733 -306 3 -307 2 0 -1005z"/>
<path d="M8915 11790 c1 -16 8 -36 15 -45 13 -16 7 -45 -10 -45 -5 0 -10 11
-10 25 0 14 -5 25 -10 25 -12 0 -1 -53 12 -58 4 -2 8 -8 8 -14 0 -6 -12 -8
-30 -5 -35 8 -60 0 -60 -18 0 -7 -4 -15 -8 -17 -5 -1 -12 -18 -15 -35 -5 -25
-3 -33 8 -33 8 0 15 -6 15 -14 0 -9 8 -12 25 -8 18 3 25 0 25 -12 0 -9 8 -16
19 -16 21 0 45 23 34 33 -3 4 -1 7 6 7 9 0 11 -8 7 -25 -4 -15 -2 -25 5 -25 6
0 9 -6 6 -12 -2 -7 -17 -13 -33 -13 -19 0 -30 -6 -32 -17 -2 -11 3 -18 12 -18
9 0 16 -4 16 -8 0 -10 27 -13 49 -6 11 4 11 7 0 21 -13 15 -12 15 7 3 30 -18
20 -48 -14 -46 -15 1 -33 5 -40 10 -7 4 -30 9 -51 11 -21 1 -43 5 -48 8 -5 3
-20 3 -32 0 -18 -5 -21 -10 -16 -34 6 -28 -7 -40 -20 -19 -3 5 -21 1 -42 -11
l-35 -20 -15 21 c-11 16 -18 18 -28 10 -19 -16 -26 3 -12 34 14 30 22 32 35
10 11 -19 34 -10 26 10 -5 13 9 28 31 33 50 11 58 12 47 7 -7 -3 -17 -15 -23
-26 -10 -18 -8 -19 13 -13 12 4 25 11 28 15 10 13 38 18 47 9 16 -16 41 0 36
22 -6 21 -23 26 -23 7 0 -7 -7 -5 -18 5 -14 13 -25 14 -57 6 -70 -19 -105 -22
-105 -10 0 6 4 11 10 11 14 0 1 28 -17 34 -24 10 -36 -4 -19 -23 14 -15 13
-19 -2 -42 -25 -39 -79 -89 -94 -89 -7 0 -19 -4 -27 -9 -11 -7 0 -23 51 -74
36 -36 72 -75 81 -87 15 -21 17 -21 32 -6 21 20 63 23 46 2 -9 -11 9 -13 109
-10 104 3 122 6 139 23 12 12 27 18 36 15 8 -4 15 -1 15 5 0 6 -4 11 -9 11 -5
0 -17 14 -25 32 -19 38 -20 41 -4 36 15 -5 48 34 48 56 0 18 13 26 52 30 13 1
29 6 36 10 7 4 20 2 29 -6 13 -10 17 -10 20 0 3 6 11 12 18 12 8 0 11 7 8 19
-3 10 0 22 7 26 8 5 8 11 -1 21 -10 12 -6 21 21 49 l33 34 -27 11 c-41 15 -46
13 -46 -19 0 -16 -6 -31 -12 -34 -17 -6 -58 10 -58 22 0 15 18 23 22 9 5 -15
28 -1 28 18 0 8 -6 14 -13 14 -7 0 -18 9 -25 20 -7 11 -18 17 -27 14 -11 -5
-15 1 -15 25 0 37 -46 89 -64 71 -14 -14 -46 -13 -50 3 -3 6 -7 24 -10 39 -4
15 -15 32 -25 37 -16 9 -18 7 -16 -19z"/>
<path d="M6080 11690 c0 -31 -28 -67 -58 -75 -15 -4 -35 -14 -44 -22 -20 -18
-24 -43 -6 -43 6 0 20 -7 30 -17 11 -9 18 -11 18 -5 0 7 4 12 10 12 5 0 7 -6
4 -14 -3 -7 1 -28 8 -45 12 -30 14 -31 33 -16 20 16 20 16 -2 10 -36 -10 -30
34 9 69 23 20 28 30 19 35 -9 6 -10 11 -2 15 6 4 16 4 21 1 6 -3 10 2 10 12 0
10 -9 24 -21 31 -16 10 -19 19 -14 43 4 18 3 29 -4 29 -6 0 -11 -9 -11 -20z"/>
<path d="M7471 11643 c-11 -12 -12 -20 -3 -34 10 -15 9 -19 -1 -19 -8 0 -22
-9 -32 -20 -10 -11 -30 -20 -44 -20 -23 -1 -24 -2 -8 -11 9 -5 17 -15 17 -20
0 -6 -4 -7 -10 -4 -5 3 -10 -1 -10 -9 0 -9 -7 -16 -15 -16 -9 0 -15 6 -14 13
3 26 -1 37 -15 37 -25 0 -27 -17 -8 -52 12 -21 27 -33 40 -33 33 -1 49 -21 23
-30 -41 -13 -20 -22 27 -12 48 11 65 23 58 44 -3 6 8 16 24 23 16 6 31 18 34
26 8 21 -34 35 -57 19 -19 -13 -57 -9 -57 6 0 16 23 26 69 28 24 1 28 5 24 21
-3 11 -1 20 4 20 15 0 8 40 -8 51 -19 12 -22 11 -38 -8z"/>
<path d="M5000 11535 c0 -15 -6 -25 -14 -25 -18 0 -55 -62 -73 -125 -19 -62
-29 -75 -60 -75 -18 0 -28 -8 -36 -30 -11 -28 -27 -41 -27 -21 0 5 -10 13 -22
17 -20 6 -19 7 10 20 28 11 32 18 32 49 0 21 -4 34 -10 30 -5 -3 -7 -11 -5
-18 6 -17 -20 -48 -36 -45 -9 2 -14 -7 -14 -27 0 -26 9 -36 70 -77 88 -60 115
-76 98 -57 -20 21 -15 27 19 24 25 -2 34 -8 38 -26 7 -30 36 -37 45 -10 3 10
13 22 22 25 18 7 45 -22 38 -42 -3 -7 0 -10 5 -7 6 4 9 -7 8 -27 -2 -27 0 -32
15 -30 11 2 17 -4 17 -17 0 -27 -17 -36 -38 -20 -9 7 9 -14 41 -47 43 -44 60
-56 66 -45 6 9 11 10 15 2 4 -6 4 -16 0 -22 -4 -6 10 -26 32 -45 41 -37 48
-40 42 -22 -3 7 1 19 9 26 11 11 16 11 28 -2 19 -18 19 -26 1 -26 -7 0 -19 -6
-25 -14 -9 -10 0 -24 40 -64 50 -50 69 -57 69 -26 0 8 5 14 10 14 6 0 15 10
20 23 12 27 31 56 48 75 6 7 12 17 12 22 0 5 20 31 45 57 24 26 45 51 45 55 0
4 -13 6 -30 4 -32 -4 -43 5 -55 42 -6 21 -4 23 13 18 31 -10 62 14 62 48 0 23
-3 27 -20 23 -12 -3 -24 1 -29 11 -8 14 -13 15 -30 5 -25 -16 -41 -17 -41 -3
0 6 7 10 15 10 13 0 14 4 5 20 -6 11 -18 20 -26 20 -9 0 -18 -9 -21 -20 -3
-11 -10 -20 -15 -20 -12 0 -33 -21 -41 -40 -3 -10 -6 -7 -6 8 -1 15 -7 22 -21
22 -21 0 -27 -15 -10 -25 15 -9 12 -19 -11 -44 -15 -16 -24 -20 -32 -12 -15
15 -40 14 -34 -2 3 -7 -4 -19 -15 -26 -15 -9 -25 -9 -47 0 -31 14 -71 66 -71
92 0 9 -5 28 -12 42 -14 31 -5 42 25 27 35 -17 67 -24 67 -15 0 14 -22 33 -37
33 -18 0 -63 48 -63 67 0 9 -7 12 -25 7 -16 -4 -34 1 -55 16 -23 16 -34 19
-44 11 -15 -13 -26 -5 -26 19 0 11 11 17 37 18 39 3 55 16 46 39 -3 7 0 13 6
13 16 0 13 21 -9 63 -24 44 -24 48 -5 41 9 -4 16 3 21 20 7 31 -1 46 -27 46
-14 0 -19 -7 -19 -25z"/>
<path d="M9308 11472 c-26 -2 -39 -9 -43 -23 -4 -10 -13 -19 -21 -19 -8 0 -14
-4 -14 -8 0 -19 -73 -83 -87 -78 -20 8 -76 -33 -69 -50 3 -8 -3 -20 -14 -26
-24 -15 -25 -25 -6 -44 16 -16 37 -19 34 -5 -3 11 9 12 40 4 26 -6 72 20 72
42 0 8 6 15 14 15 7 0 21 11 30 25 16 24 46 35 46 17 0 -5 25 -5 56 0 31 5 59
7 61 4 7 -7 11 -59 6 -73 -3 -7 -14 -13 -24 -13 -10 0 -19 -5 -19 -11 0 -14
70 -5 79 10 4 6 15 10 26 10 11 -1 30 2 43 6 17 6 21 4 16 -8 -3 -8 -1 -17 4
-21 5 -3 9 13 10 34 1 29 -2 40 -13 40 -8 0 -23 10 -34 22 -13 13 -33 21 -51
21 -22 0 -30 5 -30 19 0 28 -31 19 -43 -12 -5 -13 -6 -13 -6 0 -1 8 6 27 14
43 13 25 12 28 -10 43 -13 8 -25 21 -27 27 -2 7 -18 11 -40 9z"/>
<path d="M3509 11373 c-6 -16 -8 -40 -5 -56 7 -35 -25 -71 -55 -62 -15 5 -22
2 -26 -14 -3 -12 -13 -21 -25 -21 -10 0 -16 -4 -13 -10 3 -5 15 -10 26 -10 11
0 18 4 15 9 -3 5 1 14 9 21 13 11 15 8 15 -14 0 -18 7 -29 23 -35 26 -10 37
-6 37 15 0 8 10 28 22 45 15 20 21 41 20 63 -3 29 1 35 23 43 22 7 24 11 13
24 -7 9 -25 19 -41 23 -23 6 -29 3 -38 -21z"/>
<path d="M4280 11248 c-8 -13 -13 -26 -12 -30 1 -3 -5 -12 -13 -18 -17 -14
-20 -56 -5 -65 12 -8 13 -62 1 -69 -10 -7 -21 -56 -12 -56 4 0 19 14 33 31 24
26 32 29 62 24 29 -6 35 -4 41 15 9 29 49 23 53 -8 3 -22 1 -23 -27 -17 -24 5
-31 3 -31 -8 0 -9 5 -17 12 -19 14 -5 18 -78 5 -95 -12 -17 -11 -17 56 7 31
11 62 20 69 20 7 0 19 4 27 9 12 8 12 12 2 25 -8 9 -10 16 -7 16 4 0 -1 12
-11 28 -11 15 -27 46 -38 70 -18 42 -35 55 -35 27 0 -8 -6 -15 -12 -16 -7 0
-25 -2 -40 -3 -18 -1 -28 4 -31 16 -3 10 0 18 6 19 7 0 0 5 -15 11 -29 10 -35
22 -18 33 23 15 9 27 -25 21 -28 -6 -34 -4 -29 8 3 8 12 17 20 20 8 3 14 10
14 16 0 18 -25 11 -40 -12z"/>
<path d="M8126 11225 c-3 -8 -1 -15 4 -15 6 0 10 -9 10 -20 0 -13 -7 -20 -20
-20 -23 0 -38 -43 -21 -64 6 -7 8 -16 4 -20 -13 -12 16 -22 57 -20 30 1 46 9
61 28 20 25 44 27 36 3 -2 -7 2 -18 10 -25 20 -21 16 -34 -7 -22 -28 15 -25 2
6 -26 26 -25 54 -32 54 -14 0 14 58 12 67 -2 4 -7 17 -18 27 -24 11 -6 22 -17
25 -25 4 -12 2 -12 -12 0 -15 12 -17 11 -17 -2 0 -12 8 -16 29 -14 l30 2 -27
30 c-48 54 -76 76 -88 71 -7 -3 -18 3 -26 12 -11 13 -11 14 1 7 9 -5 12 -4 7
3 -4 6 -14 8 -23 5 -12 -5 -15 -2 -10 10 4 10 -8 28 -37 54 -130 116 -129 115
-140 88z"/>
<path d="M1938 11131 c-75 -78 -111 -124 -70 -87 22 19 22 19 22 -3 0 -18 5
-21 28 -19 17 2 26 -1 25 -9 -2 -7 -4 -18 -5 -25 -4 -14 27 -22 50 -13 13 5
14 8 3 14 -7 5 -13 21 -13 35 0 18 -9 33 -24 43 -13 8 -24 21 -24 29 0 26 22
25 47 -2 15 -16 36 -34 47 -40 19 -9 21 -8 21 11 -1 11 -5 26 -9 33 -4 7 -2
12 3 12 6 0 11 -4 11 -10 0 -5 10 -10 22 -10 20 0 21 1 3 20 -10 11 -15 23
-12 27 4 3 7 1 7 -5 0 -7 14 -12 30 -12 17 0 30 5 30 10 0 6 -7 10 -15 10 -8
0 -15 4 -15 8 0 5 -10 14 -22 20 -13 7 -32 18 -43 27 -20 14 -25 10 -97 -64z"/>
<path d="M4127 11164 c-10 -13 -24 -24 -32 -24 -8 0 -21 -10 -29 -21 -10 -15
-21 -20 -36 -16 -33 8 -48 -1 -60 -39 -10 -30 -15 -33 -37 -28 -19 5 -24 4
-18 -6 5 -8 -11 -30 -45 -62 -49 -46 -51 -51 -36 -66 15 -15 16 -14 16 11 0
24 5 28 40 33 22 4 43 11 46 15 3 5 17 9 31 9 18 0 24 4 20 14 -3 8 0 17 8 20
9 3 12 0 8 -10 -7 -19 65 -19 103 1 16 8 36 15 44 15 45 0 77 59 48 88 -15 15
-48 16 -48 2 0 -5 -7 -10 -15 -10 -16 0 -19 17 -9 44 3 9 11 13 17 9 6 -3 7
-1 3 5 -4 7 -1 12 8 12 19 0 21 16 3 23 -6 2 -20 -6 -30 -19z"/>
<path d="M7855 11140 c-4 -6 -12 -7 -18 -4 -8 5 -8 3 1 -7 16 -17 15 -29 -3
-29 -7 0 -18 -7 -23 -16 -7 -13 -13 -14 -30 -5 -11 6 -24 20 -27 31 -7 21 -30
27 -40 9 -4 -6 2 -13 14 -16 21 -5 31 -43 12 -43 -6 0 -22 -11 -37 -25 -15
-14 -31 -25 -35 -25 -5 0 -9 -7 -9 -15 0 -18 21 -20 39 -2 11 10 11 8 1 -12
-12 -23 -11 -23 14 -17 20 5 26 3 26 -9 0 -12 -6 -15 -20 -10 -11 4 -34 8 -50
10 -25 3 -29 0 -32 -23 -2 -22 -8 -26 -25 -24 -20 3 -23 -1 -23 -32 0 -46 15
-53 47 -22 14 14 30 26 34 26 5 0 9 9 9 21 0 11 4 18 9 14 5 -3 12 -1 16 5 3
5 19 10 36 10 22 0 29 5 29 20 0 11 5 19 11 18 6 -2 14 3 16 10 3 8 -7 12 -31
12 -43 0 -49 9 -26 38 l19 23 41 -21 c51 -26 75 -14 66 32 -4 22 -1 30 12 35
22 8 52 34 52 45 0 12 -68 10 -75 -2z"/>
<path d="M2355 10940 c10 -11 13 -20 8 -20 -6 0 -13 -9 -16 -20 -6 -24 1 -25
31 -4 22 15 25 15 47 -6 15 -14 27 -40 31 -66 6 -40 8 -43 30 -38 45 12 56 9
76 -18 l21 -26 -22 -31 c-12 -17 -28 -31 -35 -31 -16 0 -41 54 -31 69 4 7 -4
11 -19 11 -14 0 -27 -3 -30 -8 -2 -4 -2 -45 1 -90 5 -63 9 -82 20 -82 9 0 13
6 10 14 -3 8 2 16 14 19 11 3 23 15 26 26 6 24 16 27 31 9 25 -33 21 -53 -18
-98 -22 -25 -40 -51 -40 -57 0 -7 18 -21 41 -32 37 -18 41 -18 46 -3 9 24 25
33 39 21 7 -6 14 -6 17 -2 4 7 2 69 -4 83 -1 3 -1 9 0 14 1 5 -5 6 -13 3 -23
-9 -28 5 -6 20 11 8 20 22 20 32 0 23 36 56 44 42 4 -6 2 -19 -3 -29 -6 -12
-7 -41 -1 -83 8 -55 7 -66 -7 -76 -10 -8 -12 -13 -5 -13 21 0 13 -30 -10 -41
-17 -7 -23 -20 -25 -45 -2 -35 -1 -35 21 -20 24 15 65 11 78 -8 4 -6 10 -7 15
-3 4 4 -7 22 -25 38 -31 30 -34 49 -8 49 16 0 27 35 19 56 -3 8 -11 14 -19 14
-8 0 -14 7 -14 15 0 17 25 20 35 5 4 -6 12 -10 18 -9 28 3 39 -2 33 -16 -6
-17 2 -19 24 -5 12 8 12 11 0 27 -23 28 -42 64 -37 70 7 6 57 -27 57 -38 0 -5
8 -9 18 -9 20 1 9 11 -198 185 -30 25 -66 56 -80 69 -14 12 -47 37 -74 56 -26
19 -64 50 -82 68 -39 37 -81 47 -49 12z"/>
<path d="M2265 10931 c-21 -18 -45 -55 -45 -70 0 -5 9 -11 21 -14 13 -4 18
-10 14 -17 -4 -7 -1 -17 6 -22 11 -8 10 -9 -3 -4 -18 6 -24 -16 -19 -72 1 -17
-6 -26 -32 -37 -38 -16 -55 -43 -33 -51 18 -7 28 -44 12 -44 -7 0 -18 -11 -24
-25 -10 -21 -9 -25 4 -25 8 0 12 -4 9 -10 -12 -20 11 -9 36 18 25 27 69 111
69 133 0 7 -8 18 -17 25 -17 13 -17 13 0 14 10 0 17 8 17 20 0 11 4 20 9 20
21 0 41 -13 41 -26 0 -8 5 -14 10 -14 6 0 10 8 10 19 0 10 7 24 15 31 12 10
16 9 21 -4 7 -19 34 -22 34 -3 0 7 -5 18 -12 25 -9 9 -8 17 2 37 19 35 8 40
-36 17 -23 -12 -33 -22 -25 -26 16 -10 14 -26 -5 -26 -8 0 -12 5 -9 10 3 6 1
10 -6 10 -6 0 -9 8 -6 20 3 10 -1 25 -9 31 -12 10 -12 15 2 30 10 11 12 19 6
19 -6 0 -17 6 -24 14 -12 11 -17 11 -33 -3z"/>
<path d="M8361 10884 c-12 -15 -21 -37 -21 -50 0 -14 -6 -24 -15 -24 -21 0
-33 -30 -28 -68 3 -18 0 -39 -7 -47 -10 -12 -10 -18 0 -30 11 -13 8 -15 -13
-15 -34 0 -47 -25 -47 -92 0 -42 -6 -62 -25 -88 -14 -19 -23 -40 -21 -47 3 -7
1 -13 -5 -13 -17 0 -34 -49 -21 -62 18 -18 14 -40 -5 -37 -35 4 -73 -13 -73
-33 0 -13 5 -18 18 -16 9 2 16 10 14 16 -1 7 9 12 23 12 16 0 25 -6 25 -16 0
-28 -20 -54 -43 -54 -12 0 -28 -9 -35 -20 -18 -29 -6 -25 67 22 43 29 59 44
48 46 -13 3 -7 13 28 48 25 24 50 44 55 44 14 0 12 14 -2 29 -11 10 -7 12 16
9 31 -3 50 -28 22 -28 -9 0 -16 -8 -16 -19 0 -13 -11 -23 -35 -31 -19 -6 -35
-18 -35 -26 0 -10 7 -9 33 6 41 25 87 52 157 93 46 27 55 38 55 61 1 28 -25
50 -33 28 -5 -15 -52 -16 -52 -1 0 6 5 19 10 29 13 23 -12 40 -59 40 -29 0
-46 20 -18 20 22 1 57 38 57 60 0 12 4 19 9 16 5 -4 7 3 4 14 -4 14 1 21 20
25 14 4 28 13 31 21 3 8 13 14 23 14 17 1 17 1 -1 15 -10 7 -15 18 -11 24 3 6
1 19 -4 28 -9 16 -10 14 -11 -9 0 -32 -8 -34 -36 -13 -15 12 -16 14 -3 15 11
0 16 10 16 31 0 27 -3 30 -24 26 -28 -5 -29 3 -2 31 19 21 19 42 -1 42 -5 0
-18 -12 -29 -26z"/>
<path d="M3267 10766 c-9 -14 -17 -30 -17 -35 0 -6 -10 -16 -22 -22 -13 -7
-26 -16 -29 -21 -4 -6 -15 -1 -25 10 -26 26 -73 56 -80 50 -3 -3 9 -16 26 -29
74 -57 188 -149 262 -211 45 -37 86 -64 94 -61 21 8 17 25 -5 18 -29 -9 -33 8
-11 53 24 49 69 76 106 62 13 -5 24 -12 24 -15 0 -3 -19 -24 -42 -45 -24 -22
-38 -40 -31 -40 7 0 20 8 30 19 10 10 28 24 41 30 16 8 21 18 17 30 -3 10 1
24 10 31 11 9 12 16 5 25 -8 10 -8 15 1 21 17 10 113 12 120 2 6 -10 79 29 79
41 0 5 -9 16 -19 25 -11 10 -17 24 -15 31 11 27 -19 28 -40 2 -15 -19 -27 -25
-42 -21 -13 4 -23 0 -27 -9 -7 -18 -93 -67 -118 -67 -11 0 -19 5 -19 10 0 6
-12 10 -28 10 -15 0 -37 7 -50 15 -19 14 -24 14 -47 -1 -15 -10 -47 -16 -85
-17 -33 0 -60 -5 -60 -10 0 -20 -13 3 -16 28 -2 18 6 31 27 45 33 24 34 29 16
54 -13 17 -14 17 -30 -8z"/>
<path d="M7435 10777 c-11 -7 -22 -15 -25 -18 -3 -3 -13 -8 -22 -12 -10 -3
-18 -11 -18 -17 0 -13 23 -13 37 1 9 9 12 4 11 -19 -1 -27 -3 -29 -13 -16 -11
15 -14 15 -38 0 -21 -15 -29 -15 -46 -4 -18 11 -23 11 -31 -2 -7 -11 -3 -21
15 -38 14 -13 25 -27 25 -33 0 -15 44 -28 53 -15 5 6 6 1 2 -11 -5 -17 -2 -23
10 -23 13 0 16 6 11 24 -4 16 -1 26 9 30 8 3 15 12 15 20 0 9 8 20 19 25 10 6
21 24 24 41 5 24 12 30 32 30 30 0 34 25 6 40 -25 13 -51 12 -76 -3z"/>
<path d="M1601 10655 c-31 -81 -44 -111 -51 -126 -5 -9 -6 -26 -3 -37 5 -23
27 -23 78 -2 17 6 35 13 40 14 17 4 78 38 92 52 7 7 13 17 13 23 0 6 5 11 10
11 6 0 10 5 10 10 0 17 -17 11 -49 -16 -17 -14 -41 -26 -54 -28 -12 -1 -29 -6
-37 -11 -9 -5 -15 -4 -18 3 -2 7 -10 12 -18 12 -8 0 -14 10 -14 26 0 14 4 23
9 20 4 -3 13 6 19 19 7 14 7 25 3 25 -5 0 -11 8 -14 18 -3 13 -7 10 -16 -13z"/>
<path d="M5968 10654 c-27 -14 -48 -30 -48 -37 0 -7 -14 -25 -31 -40 -27 -23
-37 -26 -68 -21 -20 4 -41 13 -46 21 -9 12 -15 11 -38 -8 l-28 -21 -19 20
c-17 18 -17 22 -5 32 8 7 15 17 15 23 0 6 -10 2 -21 -10 -21 -21 -21 -21 -3
-47 11 -14 23 -26 28 -26 5 0 27 -16 50 -35 22 -19 55 -46 71 -59 17 -14 55
-47 85 -73 86 -76 98 -84 70 -46 -12 18 -29 34 -37 37 -10 4 -12 13 -8 27 6
19 4 21 -19 17 -32 -6 -32 -4 -4 24 13 13 31 21 41 20 27 -5 47 16 47 49 0 24
4 29 25 29 26 0 33 18 14 37 -8 8 -20 8 -41 1 -24 -8 -33 -7 -46 5 -13 13 -13
19 -2 32 7 9 20 15 29 14 30 -4 73 20 67 37 -3 9 -6 18 -6 20 0 9 -28 1 -72
-22z"/>
<path d="M9583 10644 c-18 -9 -30 -20 -27 -25 6 -10 -34 -53 -55 -60 -10 -4
-10 -10 -1 -30 l12 -26 26 24 c14 13 30 22 34 21 5 -2 8 -6 6 -8 -1 -3 5 -16
14 -29 13 -18 15 -29 6 -44 -7 -15 -7 -22 3 -28 8 -5 12 -9 9 -10 -13 -4 -59
-4 -55 -1 2 2 -10 17 -28 33 -32 30 -52 33 -23 3 10 -9 15 -23 12 -31 -3 -8
-6 -21 -6 -29 0 -7 -11 -16 -24 -20 -20 -5 -23 -10 -19 -42 4 -36 18 -62 34
-62 5 0 9 7 9 16 0 10 6 14 15 10 26 -10 45 4 39 29 -7 27 11 66 29 62 7 -1
11 4 10 11 -2 6 2 12 8 12 6 0 9 6 6 13 -8 22 9 40 38 41 29 1 54 39 35 51 -6
4 -10 -1 -10 -9 0 -20 -12 -26 -38 -19 -24 6 -30 33 -8 33 13 0 26 20 26 41 0
5 -6 9 -14 9 -8 0 -21 8 -28 18 -7 11 -20 21 -28 24 -11 4 -7 9 13 17 15 6 27
13 27 16 0 8 -13 5 -47 -11z"/>
<path d="M4599 10568 c-8 -4 -35 -17 -61 -28 -52 -22 -63 -34 -23 -24 21 5 25
3 25 -14 0 -12 7 -25 16 -30 22 -12 2 -51 -42 -80 -19 -12 -32 -27 -29 -32 3
-6 -3 -10 -15 -10 -17 0 -20 -4 -15 -19 5 -17 0 -21 -29 -27 -38 -7 -44 -15
-23 -32 27 -22 67 -25 82 -6 8 11 12 25 10 32 -3 8 0 12 7 10 7 -3 15 -18 16
-34 5 -36 18 -45 49 -31 16 7 20 14 13 21 -17 17 -11 29 14 24 27 -5 58 27 69
74 10 37 52 85 82 92 30 8 70 -16 70 -42 0 -10 9 -18 23 -20 16 -3 22 -10 22
-28 0 -15 6 -24 15 -24 8 0 15 -4 15 -8 0 -5 16 -14 35 -22 32 -13 49 -40 25
-40 -5 0 -10 -4 -10 -10 0 -10 27 -9 45 2 15 9 46 -17 40 -33 -7 -19 44 -42
61 -28 21 17 57 1 51 -23 -3 -11 2 -27 14 -39 15 -15 19 -16 19 -4 0 8 5 15
10 15 6 0 10 7 10 15 0 18 27 20 32 3 2 -6 12 -9 21 -5 13 5 16 13 11 34 -10
43 -14 46 -55 40 -22 -3 -45 0 -54 7 -15 11 -14 14 5 31 16 15 23 16 29 7 12
-20 61 3 61 29 0 18 -5 21 -31 17 -20 -3 -33 0 -36 9 -7 19 -24 16 -21 -3 2
-10 -3 -19 -9 -21 -7 -3 -14 4 -14 14 -1 10 -2 25 -3 33 -1 8 -5 21 -9 28 -5
7 -2 14 7 18 9 3 13 10 10 15 -3 5 2 9 10 9 9 0 15 -8 14 -17 -1 -10 0 -26 0
-37 2 -15 4 -16 17 -6 9 7 14 19 11 26 -3 7 3 15 12 17 17 4 16 4 -75 43 -17
8 -38 14 -47 14 -9 0 -16 4 -16 9 0 5 -18 12 -40 16 -22 4 -42 11 -45 15 -3 5
-13 6 -22 3 -11 -4 -1 -11 32 -21 27 -7 58 -20 69 -28 20 -14 20 -14 -2 -14
-29 0 -70 -39 -52 -50 7 -4 9 -13 6 -19 -11 -17 -23 -13 -29 9 -3 14 -14 20
-31 20 -14 0 -27 6 -27 13 -1 6 -2 19 -3 27 -1 10 -15 16 -45 18 -39 3 -42 5
-37 25 3 12 6 25 6 30 0 4 19 5 43 2 23 -2 33 -2 22 1 -11 4 -24 10 -30 14 -5
4 -37 11 -70 15 -33 4 -64 11 -70 15 -13 10 -118 8 -136 -2z"/>
<path d="M2850 10530 c0 -5 7 -10 15 -10 23 0 18 -17 -7 -25 -14 -4 -18 -8
-10 -12 6 -2 12 -11 12 -19 0 -13 -5 -16 -40 -18 -9 -1 -15 -11 -15 -29 0 -26
-53 -89 -72 -86 -20 3 -43 -2 -43 -10 0 -5 12 -16 26 -26 24 -16 26 -16 31 4
5 19 7 19 34 5 16 -8 27 -19 24 -24 -3 -5 4 -8 15 -7 11 1 20 6 20 13 0 20 32
75 47 81 21 8 40 -14 25 -29 -19 -19 -14 -29 7 -16 11 6 22 23 24 38 3 14 17
32 31 39 33 18 23 37 -52 96 -58 46 -72 53 -72 35z"/>
<path d="M6272 10470 c-7 -11 -23 -20 -36 -20 -13 0 -26 -6 -29 -12 -3 -10 -9
-10 -29 1 -32 17 -84 6 -99 -20 -14 -26 -3 -40 26 -33 15 4 26 0 32 -10 9 -16
61 -25 80 -13 6 4 19 4 28 1 16 -7 17 -36 2 -74 -4 -8 4 -28 17 -44 23 -27 25
-28 62 -15 22 8 43 20 47 26 11 18 25 16 29 -4 2 -9 13 -17 26 -18 18 -1 22 3
22 26 0 15 -5 31 -11 34 -6 4 -7 19 -4 36 8 34 -6 56 -45 71 -14 6 -20 12 -12
15 6 3 12 9 12 15 0 7 -16 8 -45 4 -47 -8 -56 -1 -28 19 9 7 13 17 9 23 -11
19 -40 14 -54 -8z"/>
<path d="M6546 10422 c-3 -5 -4 -16 -1 -24 7 -18 -35 -54 -57 -50 -9 2 -19 -2
-24 -9 -5 -9 6 -11 45 -7 40 4 49 2 41 -8 -7 -7 -7 -14 -2 -18 6 -3 12 1 16 9
3 8 15 15 26 15 11 0 19 4 18 9 -2 5 2 8 7 8 13 -3 8 -39 -8 -49 -12 -7 -7 -9
45 -12 28 -2 33 -16 6 -16 -38 0 -40 -22 -4 -45 17 -10 33 -20 36 -20 3 -1 13
-5 23 -9 33 -15 157 17 157 40 0 8 5 14 11 14 6 0 9 7 5 15 -3 9 0 15 9 15 19
0 19 14 1 29 -11 9 -20 10 -35 1 -24 -12 -28 -40 -6 -40 8 0 15 -4 15 -9 0 -5
-26 -12 -57 -16 -32 -3 -68 -9 -80 -12 -17 -4 -23 -1 -23 11 0 10 9 16 23 16
19 0 16 6 -25 45 -27 24 -48 51 -48 60 0 11 -11 15 -40 15 -22 0 -40 4 -40 8
0 17 -27 45 -34 34z"/>
<path d="M2660 10290 c0 -5 -9 -10 -19 -10 -32 0 -51 -11 -51 -30 0 -10 -5
-20 -11 -22 -5 -2 -7 -11 -4 -21 4 -9 11 -14 16 -11 5 3 7 10 4 15 -9 14 11
11 24 -5 8 -10 7 -21 -5 -45 -12 -23 -13 -35 -5 -45 6 -7 12 -33 14 -56 2 -37
-1 -43 -19 -46 -17 -3 -23 3 -27 22 -4 21 -1 25 14 21 11 -3 19 -1 19 4 0 5
-6 9 -14 9 -7 0 -27 3 -44 6 -27 6 -29 4 -25 -19 4 -18 -1 -28 -16 -36 -28
-16 -28 -51 1 -51 20 0 20 -1 5 -18 -10 -10 -17 -23 -17 -29 0 -6 -9 -9 -20
-6 -13 4 -20 0 -20 -10 0 -8 -7 -17 -15 -21 -8 -3 -15 -13 -14 -23 0 -11 3
-13 6 -5 7 17 33 15 33 -3 0 -8 5 -15 10 -15 23 0 8 -19 -17 -23 l-28 -4 28
-2 c28 -1 39 -21 12 -21 -8 0 -15 -7 -15 -15 0 -22 -9 -19 -41 14 -26 28 -28
28 -43 12 -9 -10 -16 -24 -16 -31 0 -11 -3 -11 -12 -2 -7 7 -27 12 -45 12 -25
0 -31 -4 -27 -15 5 -13 2 -14 -22 -5 -26 10 -43 2 -44 -22 0 -5 -6 -8 -14 -8
-8 0 -16 -7 -20 -15 -3 -8 -17 -15 -30 -15 -32 0 -50 -30 -29 -46 10 -6 13
-16 8 -24 -6 -10 -10 -9 -17 4 -12 22 -31 10 -23 -15 5 -15 1 -19 -17 -20 -31
-2 -27 -2 -88 5 -55 7 -55 7 -57 -21 l-1 -28 20 25 c14 17 22 21 25 12 3 -7
17 -19 33 -27 25 -13 29 -13 40 0 7 8 19 15 28 15 13 0 13 -2 0 -17 -8 -10
-18 -26 -21 -36 -4 -10 -11 -15 -17 -12 -5 3 -10 -1 -10 -10 0 -8 8 -19 18
-22 35 -13 45 -65 15 -82 -17 -10 -17 -10 0 -11 24 0 21 -17 -4 -25 -14 -5
-25 -2 -30 6 -7 11 -11 11 -17 2 -11 -17 -63 -11 -86 9 -18 16 -20 16 -37 -7
-11 -13 -19 -25 -19 -27 0 -1 23 -3 51 -4 30 -1 54 -6 59 -14 12 -19 77 -3
102 26 12 13 28 24 36 24 8 0 30 9 49 21 18 12 40 19 47 16 17 -7 51 27 42 41
-7 12 58 25 82 18 11 -4 22 2 30 14 10 16 10 20 0 18 -7 -2 -12 5 -12 15 1 9
-4 17 -12 17 -15 0 -19 6 -28 43 -5 21 -3 27 9 27 9 0 18 -7 21 -15 4 -8 12
-15 20 -15 21 0 17 30 -3 30 -17 1 -17 2 1 15 10 7 15 18 11 24 -6 10 29 30
66 37 21 4 50 -27 32 -33 -7 -3 -13 -13 -13 -24 0 -17 -3 -18 -20 -9 -11 6
-18 15 -15 21 4 5 -1 9 -9 9 -9 0 -16 -8 -16 -18 0 -20 29 -64 30 -44 0 6 7
12 15 12 11 0 15 -12 15 -51 0 -46 -1 -49 -16 -35 -18 18 -34 21 -34 6 0 -6
11 -15 25 -20 26 -10 67 7 88 35 5 6 13 3 22 -9 22 -29 19 -36 -15 -36 -30 0
-41 -14 -17 -23 15 -5 67 20 67 33 0 5 -7 16 -16 24 -14 15 -14 17 2 23 11 4
22 0 30 -12 18 -24 29 -13 15 14 -16 29 0 86 23 85 21 -2 15 20 -6 24 -10 2
-19 -6 -23 -20 -15 -51 -31 -78 -42 -73 -7 2 -13 -2 -13 -9 0 -24 -50 -6 -56
20 -3 13 -10 24 -15 24 -5 0 -6 7 -3 15 8 20 19 19 40 -2 21 -21 55 -26 47 -8
-2 7 0 16 6 19 11 7 -4 44 -24 58 -5 4 -6 10 -2 14 4 4 15 -3 26 -14 22 -27
31 -28 32 -4 0 9 3 12 5 5 3 -7 11 -10 19 -7 7 3 16 1 20 -5 10 -17 28 -13 21
5 -4 9 -2 13 5 8 8 -4 9 1 4 17 -7 23 -7 23 12 7 19 -18 43 -24 43 -12 0 10
-44 43 -57 44 -7 0 -17 -8 -22 -17 -6 -10 -11 -13 -11 -6 0 6 5 15 10 18 14 9
12 26 -2 24 -30 -4 -36 3 -35 33 2 24 9 36 30 48 24 13 29 13 37 0 5 -8 7 -29
4 -46 -4 -21 -1 -34 12 -44 15 -13 16 -12 9 19 -4 21 -4 31 3 27 5 -3 12 8 14
25 3 16 1 32 -4 35 -14 9 -9 24 8 24 23 0 11 24 -13 28 -15 2 -20 10 -19 27 0
13 4 21 9 18 4 -2 7 5 7 16 0 12 -7 21 -15 21 -20 0 -40 39 -26 53 7 7 18 7
36 -1 21 -10 25 -9 25 3 0 8 -8 15 -18 15 -10 0 -28 7 -40 16 -20 14 -21 17
-7 30 18 18 19 46 3 62 -9 9 -8 12 7 12 16 0 16 2 -4 19 -13 12 -18 22 -11 26
15 9 12 25 -5 25 -8 0 -15 5 -15 11 0 6 8 9 18 7 10 -3 23 1 30 8 16 17 15 24
-3 24 -8 0 -15 -4 -15 -10z"/>
<path d="M4282 10270 l-24 -20 27 -12 c22 -10 25 -16 20 -40 -6 -27 -5 -28 33
-26 54 2 68 -9 40 -32 -17 -13 -28 -16 -47 -9 -13 5 -26 7 -29 4 -3 -3 0 -5 6
-5 7 0 12 -4 12 -10 0 -5 -9 -10 -20 -10 -14 0 -20 -7 -20 -21 0 -17 -4 -20
-20 -15 -68 21 -63 23 -39 -18 21 -36 55 -63 67 -52 3 3 3 6 -1 6 -3 0 5 11
18 25 14 13 25 32 25 42 0 15 8 18 39 18 22 0 43 3 46 7 17 17 -37 127 -62
128 -7 0 -19 14 -28 30 -9 17 -17 30 -18 30 -1 -1 -13 -9 -25 -20z"/>
<path d="M7466 10215 c-13 -23 -22 -31 -27 -24 -4 7 -14 9 -23 6 -14 -6 -14
-10 -4 -27 15 -24 34 -26 46 -4 7 13 11 14 17 4 4 -7 2 -16 -5 -20 -7 -4 -9
-13 -6 -19 10 -16 41 -14 56 4 7 8 19 15 27 15 8 0 12 4 9 9 -11 17 36 -2 61
-25 30 -28 44 -23 41 13 -3 26 -4 27 -49 37 -16 3 -29 15 -32 27 -3 12 -10 18
-16 15 -6 -4 -24 0 -40 9 -17 8 -31 15 -33 15 -2 0 -12 -16 -22 -35z"/>
<path d="M5349 10225 c-1 -6 -1 -13 0 -17 0 -4 -8 -10 -19 -13 -11 -4 -20 -12
-20 -19 0 -7 -9 -21 -20 -31 -20 -18 -20 -18 10 -47 23 -21 29 -34 24 -52 -4
-18 -1 -25 14 -28 24 -7 44 4 42 23 -6 36 1 49 24 49 13 0 27 -7 30 -16 3 -8
11 -12 17 -8 9 5 6 11 -7 21 -15 11 -17 17 -6 33 17 27 15 37 -8 43 -12 3 -20
14 -20 26 0 14 -6 21 -18 21 -10 0 -23 5 -30 12 -7 7 -13 8 -13 3z"/>
<path d="M9245 10172 c-34 -31 -36 -71 -4 -79 14 -4 18 -11 13 -25 -4 -14 -2
-18 5 -14 7 5 8 1 4 -9 -4 -11 4 -26 21 -41 14 -14 26 -29 26 -34 0 -14 -23
-25 -28 -12 -2 7 -9 12 -15 12 -6 0 -1 -10 11 -22 l21 -23 -39 -19 c-22 -10
-37 -23 -34 -27 7 -12 -39 -6 -48 6 -5 6 -14 3 -25 -7 -15 -16 -15 -18 -1 -18
8 0 18 -9 21 -20 3 -13 0 -20 -9 -20 -15 0 -19 -16 -5 -24 4 -3 16 3 26 14 10
12 13 20 7 20 -7 0 -12 5 -12 10 0 16 30 12 36 -5 5 -11 13 -10 45 10 45 29
53 31 45 10 -3 -9 0 -15 8 -15 8 0 17 -6 20 -12 3 -7 3 -3 0 10 -10 39 21 25
57 -27 18 -27 37 -47 41 -45 4 3 8 23 8 44 0 34 -4 41 -25 46 -14 3 -22 10
-19 15 10 17 -17 49 -42 49 -19 0 -25 5 -22 18 2 11 13 17 30 17 15 0 33 9 42
20 12 17 12 24 0 54 -8 18 -14 42 -14 53 0 24 -23 48 -45 48 -11 0 -15 5 -11
15 3 9 0 15 -9 15 -8 0 -15 6 -15 14 0 8 -7 17 -16 20 -20 8 -14 10 -49 -22z"/>
<path d="M4940 10158 c0 -4 6 -8 13 -8 6 -1 1 -10 -12 -21 -13 -11 -30 -18
-37 -15 -8 3 -17 0 -21 -7 -5 -7 -21 -12 -38 -12 -23 0 -31 -5 -33 -22 -2 -15
2 -23 12 -23 10 0 13 6 10 15 -4 8 -1 15 6 15 8 0 10 -12 5 -38 -5 -34 -3 -39
19 -50 23 -10 29 -8 57 18 18 16 36 27 41 24 4 -3 8 0 8 5 0 6 5 11 11 11 6 0
8 -8 5 -18 -3 -9 -2 -33 4 -52 12 -40 7 -47 -23 -33 -47 23 -57 23 -57 2 0
-11 -4 -18 -9 -14 -18 10 -23 -16 -7 -34 9 -10 13 -20 10 -24 -4 -3 5 -12 20
-18 14 -7 26 -18 26 -26 0 -7 4 -13 8 -13 4 0 8 -9 9 -20 2 -23 -5 -25 -26 -6
-9 7 -28 16 -43 20 -26 6 -27 5 -17 -21 13 -34 5 -53 -19 -46 -11 2 -23 -1
-27 -8 -6 -9 1 -11 30 -6 42 7 69 26 48 34 -7 3 -13 9 -13 14 0 17 22 9 50
-20 21 -21 27 -35 23 -52 l-5 -24 16 23 c10 12 26 22 37 22 10 0 19 7 19 15 0
8 10 24 23 37 12 13 21 22 18 21 -2 -1 -13 3 -25 9 -11 7 -25 11 -30 10 -5 -2
-6 4 -2 13 3 9 6 19 6 23 0 3 11 -5 25 -18 14 -13 25 -18 25 -12 0 6 -4 14
-10 17 -19 12 -10 35 18 41 40 10 105 84 74 84 -5 0 -17 -9 -27 -20 -12 -14
-22 -17 -28 -11 -7 7 -15 4 -23 -7 -12 -16 -14 -16 -28 3 -20 26 -20 32 4 45
11 6 20 17 20 26 0 8 6 14 13 13 20 -4 67 23 67 38 0 10 -8 11 -27 7 -25 -7
-26 -5 -20 22 3 16 8 36 11 44 4 9 -3 21 -16 29 -16 10 -23 10 -26 2 -2 -6 -9
-8 -15 -4 -17 10 -127 11 -127 1z"/>
<path d="M6794 10121 c-34 -46 -86 -81 -92 -63 -2 7 -12 12 -23 12 -27 0 -28
-65 0 -73 11 -2 24 0 30 6 15 15 15 -22 0 -60 -7 -19 -12 -24 -18 -14 -6 9
-13 5 -29 -16 l-20 -28 -29 29 c-22 23 -29 25 -31 12 -2 -9 -7 -16 -12 -16
-15 0 2 -39 28 -65 19 -19 27 -22 33 -13 6 10 11 8 22 -6 8 -11 25 -20 38 -21
15 -1 24 -8 24 -18 0 -22 62 -55 91 -49 13 2 26 13 29 23 8 23 55 27 55 4 0
-8 -8 -15 -18 -15 -11 0 -24 -15 -35 -40 -9 -22 -23 -40 -29 -40 -11 -1 -52
-70 -42 -70 3 0 26 23 52 50 37 39 51 47 60 38 16 -16 15 -30 -2 -63 -11 -21
-12 -32 -3 -46 8 -13 8 -21 -3 -33 -26 -33 -2 -25 56 18 32 23 65 50 72 59 9
10 24 14 43 12 23 -3 29 0 29 15 0 10 -4 21 -10 25 -5 3 -7 12 -3 20 9 26 -13
16 -25 -10 -7 -14 -20 -25 -31 -25 -11 0 -26 -3 -35 -6 -11 -4 -16 0 -16 14 0
11 -6 23 -12 26 -7 3 -3 3 10 0 26 -6 29 4 6 21 -21 15 -10 75 13 75 10 0 13
6 9 16 -3 9 -6 20 -6 25 0 5 -13 3 -30 -6 -16 -8 -37 -15 -48 -15 -10 0 -23
-5 -29 -11 -13 -13 -75 9 -67 23 3 5 -4 20 -15 34 -25 31 -27 76 -6 94 8 7 15
18 15 24 0 7 7 35 15 64 13 43 19 51 42 54 26 3 27 3 7 22 -10 11 -19 23 -19
27 0 22 -15 14 -41 -20z"/>
<path d="M1490 10040 c0 -6 -8 -10 -17 -8 -14 2 -19 -5 -21 -31 -2 -19 2 -37
9 -41 7 -5 9 -16 5 -26 -6 -16 -8 -16 -16 -4 -8 12 -10 9 -10 -10 0 -24 3 -26
47 -25 41 0 48 4 63 29 17 32 48 50 37 23 -4 -12 -2 -14 11 -10 30 11 40 23
35 44 -5 17 -8 18 -27 6 -28 -17 -56 -10 -56 14 0 10 -7 19 -15 19 -8 0 -15 7
-15 15 0 8 -7 15 -15 15 -8 0 -15 -5 -15 -10z"/>
<path d="M5380 10010 c0 -5 -5 -10 -10 -10 -6 0 -24 -13 -40 -30 -16 -16 -34
-30 -40 -30 -5 0 -10 -8 -10 -19 0 -22 -25 -45 -40 -36 -5 3 -10 -1 -10 -9 0
-9 0 -19 0 -23 0 -5 8 -9 17 -9 10 -1 40 -13 67 -28 29 -15 64 -26 85 -25 20
0 30 3 24 6 -7 2 -13 10 -13 16 0 6 -7 18 -15 27 -11 12 -12 24 -5 50 5 18 7
36 5 41 -3 4 -1 10 4 14 6 3 8 12 5 19 -3 8 0 17 6 21 8 5 8 11 -1 21 -13 16
-29 18 -29 4z"/>
<path d="M4833 9912 c-9 -14 -14 -15 -32 -4 -25 14 -51 16 -51 2 0 -5 -12 -9
-27 -9 -16 -1 -37 -1 -48 -1 -11 0 -47 2 -80 4 -33 3 -63 2 -67 0 -13 -8 23
-54 41 -54 10 0 21 -3 24 -7 11 -10 -14 -33 -35 -33 -17 0 -18 -3 -8 -15 18
-22 50 -19 50 5 0 11 7 20 15 20 8 0 15 -4 15 -9 0 -5 9 -13 21 -16 26 -9 44
-52 28 -71 -6 -8 -15 -12 -19 -9 -5 3 -3 -6 3 -19 9 -19 19 -24 39 -23 19 1
28 8 28 18 0 23 26 31 40 13 7 -8 17 -14 23 -14 6 0 1 7 -11 16 -12 8 -22 24
-22 35 0 10 -7 19 -15 19 -8 0 -15 -7 -15 -15 0 -8 -7 -15 -15 -15 -8 0 -15 5
-15 10 0 6 4 10 9 10 5 0 7 9 4 20 -4 16 0 20 22 20 15 0 38 -9 52 -19 13 -11
31 -17 39 -14 21 8 17 25 -5 18 -24 -7 -51 22 -27 31 9 3 16 12 16 18 0 7 11
23 25 36 25 23 33 54 17 64 -4 2 -13 -3 -19 -12z"/>
<path d="M6430 9887 c0 -2 66 -68 146 -147 109 -108 144 -137 139 -117 -5 20
-3 27 8 27 12 0 27 19 27 36 0 12 -41 2 -46 -11 -8 -20 -27 -19 -47 3 -21 23
-22 46 -2 38 8 -3 22 -3 30 0 13 5 12 11 -6 35 -11 16 -29 29 -40 29 -11 0
-33 10 -50 22 -26 19 -31 20 -39 8 -8 -12 -18 -6 -57 33 -42 41 -63 55 -63 44z"/>
<path d="M12860 9655 c-410 -67 -673 -363 -746 -840 -20 -125 -13 -444 10
-547 90 -392 313 -634 664 -720 105 -26 331 -31 427 -9 316 70 543 293 641
630 13 46 24 89 24 97 0 19 -409 21 -414 2 -55 -187 -143 -298 -279 -350 -67
-26 -215 -35 -288 -18 -117 27 -212 98 -274 203 -106 182 -137 532 -70 802 23
91 89 217 141 270 83 82 196 125 333 125 187 0 352 -119 419 -300 l20 -55 206
-3 206 -2 0 29 c0 41 -45 193 -76 254 -108 215 -312 370 -556 423 -103 22
-285 26 -388 9z"/>
<path d="M14750 9653 c-225 -23 -406 -106 -550 -252 -143 -145 -229 -333 -266
-581 -22 -153 -15 -453 15 -580 69 -302 212 -500 443 -616 148 -74 360 -112
562 -100 476 28 748 256 851 711 26 111 31 442 11 584 -62 421 -276 696 -618
795 -132 38 -308 54 -448 39z m251 -373 c140 -26 271 -128 337 -262 55 -112
73 -203 79 -386 8 -247 -22 -385 -114 -524 -53 -81 -106 -126 -194 -168 -87
-40 -164 -53 -279 -47 -250 14 -402 141 -473 395 -18 68 -21 103 -21 287 0
184 3 220 22 290 61 225 190 366 375 411 64 15 196 17 268 4z"/>
<path d="M16495 9649 c-192 -26 -369 -114 -463 -232 -81 -100 -115 -212 -114
-367 2 -179 41 -279 149 -381 115 -107 256 -161 653 -254 311 -72 378 -118
387 -267 4 -66 2 -78 -24 -127 -33 -63 -97 -112 -176 -137 -72 -22 -241 -30
-318 -15 -171 34 -291 140 -314 279 l-7 42 -200 0 -201 0 7 -60 c38 -333 245
-530 621 -591 117 -19 393 -17 481 4 278 64 456 212 520 432 22 76 22 254 -1
338 -65 247 -202 333 -747 471 -247 63 -313 86 -370 129 -56 43 -78 88 -78
159 0 72 12 104 58 151 53 54 125 78 254 84 172 9 284 -22 360 -100 38 -39 78
-128 78 -172 l0 -25 200 0 200 0 0 28 c-1 55 -31 168 -63 237 -114 237 -355
369 -692 380 -71 2 -161 0 -200 -6z"/>
<path d="M5320 9593 c0 -6 14 -14 32 -19 l31 -9 -26 -29 c-15 -16 -27 -35 -27
-42 0 -8 -9 -14 -20 -14 -14 0 -18 5 -14 18 5 14 3 14 -11 -3 -15 -19 -17 -19
-26 -3 -14 25 -42 11 -36 -18 3 -20 0 -24 -21 -24 -14 0 -31 -8 -38 -17 -17
-23 -17 -30 2 -37 9 -4 13 -2 8 5 -8 13 16 30 29 22 5 -3 4 -9 -3 -13 -18 -11
-4 -57 18 -62 15 -4 18 0 16 21 -2 14 -1 19 2 10 3 -11 12 -15 25 -12 20 6 20
6 -1 25 -11 10 -20 26 -20 35 0 12 6 9 26 -10 14 -14 32 -23 40 -20 10 4 12 0
8 -12 -5 -13 -2 -16 12 -13 11 2 18 11 18 21 -1 10 9 29 23 43 l25 25 48 -22
c27 -12 51 -30 53 -40 4 -14 14 -19 37 -19 39 0 31 16 -17 36 -39 17 -65 60
-44 74 23 14 1 32 -30 25 -32 -7 -36 0 -14 29 21 28 18 44 -7 45 -13 0 -40 3
-60 7 -22 3 -38 2 -38 -3z"/>
<path d="M17490 9425 l0 -175 305 0 305 0 0 -830 0 -830 205 0 205 0 0 830 0
830 305 0 305 0 0 175 0 175 -815 0 -815 0 0 -175z"/>
<path d="M19235 8728 c-170 -479 -331 -932 -357 -1005 l-47 -133 221 2 221 3
70 208 70 207 371 0 372 0 64 -210 63 -210 224 0 c125 0 223 4 223 9 0 7 -672
1926 -695 1984 -7 15 -28 17 -249 17 l-241 0 -310 -872z m675 24 c67 -216 120
-395 118 -398 -3 -2 -117 -3 -255 -2 l-249 3 122 380 c67 209 125 389 128 400
3 10 7 17 9 15 2 -3 59 -182 127 -398z"/>
<path d="M1756 9535 c-9 -14 -13 -25 -9 -25 5 0 0 -5 -10 -11 -21 -12 -14 -27
20 -40 19 -7 23 -12 14 -23 -6 -7 -7 -16 -3 -21 4 -4 -8 0 -27 10 -34 17 -61
9 -46 -15 5 -8 11 -8 21 1 8 6 18 8 22 4 4 -4 1 -10 -5 -12 -7 -3 -13 -11 -13
-19 0 -9 5 -12 10 -9 18 11 32 -5 19 -21 -18 -21 -2 -30 19 -11 10 10 23 17
28 17 6 0 18 16 27 36 14 28 21 33 31 25 7 -6 16 -8 19 -4 9 9 -12 33 -30 33
-8 0 -11 5 -8 10 3 6 16 10 28 10 18 0 15 4 -13 17 -46 22 -47 23 -30 33 8 5
11 12 7 16 -4 4 -13 2 -19 -4 -18 -18 -31 -14 -25 8 7 28 -7 25 -27 -5z"/>
<path d="M6039 9453 c0 -28 0 -28 -10 -5 -9 25 -29 26 -37 2 -3 -9 1 -11 12
-7 9 4 16 2 16 -3 0 -6 -4 -10 -9 -10 -15 0 -22 -74 -8 -85 23 -19 41 -59 28
-63 -6 -2 -9 -8 -5 -13 3 -5 -6 -4 -20 2 -20 10 -30 9 -51 -5 -14 -9 -25 -22
-25 -28 0 -9 3 -9 11 -1 8 8 20 8 43 -2 27 -12 33 -11 49 2 9 9 19 14 22 11 9
-9 -6 -38 -20 -38 -7 0 -15 -6 -18 -13 -4 -10 8 -8 39 7 49 22 59 52 24 74
-13 8 -20 23 -20 42 0 20 -5 30 -15 30 -18 0 -18 -1 -4 39 6 17 15 31 20 31 4
0 6 7 3 15 -4 8 -1 15 6 15 10 0 10 3 0 15 -19 23 -30 18 -31 -12z"/>
<path d="M4210 9140 c0 -8 -9 -21 -20 -28 -12 -7 -17 -18 -13 -28 5 -14 3 -15
-16 -4 -13 6 -21 17 -18 23 3 7 -7 13 -24 14 -21 2 -27 -2 -22 -12 3 -8 0 -15
-6 -15 -6 0 -11 -5 -11 -11 0 -7 11 -8 30 -4 25 5 30 3 30 -12 0 -11 -4 -23
-9 -28 -14 -16 -22 -63 -11 -70 6 -4 15 7 21 24 6 17 14 31 19 31 4 0 10 9 13
20 6 22 51 28 63 8 8 -12 -24 -40 -37 -32 -5 3 -9 1 -9 -5 0 -10 34 -25 60
-26 17 -1 40 19 40 34 0 6 5 11 10 11 6 0 10 5 10 10 0 6 -11 10 -25 10 -27 0
-32 9 -13 28 18 18 -10 36 -30 20 -9 -8 -16 -8 -25 1 -9 9 -9 14 0 19 8 5 9
13 3 22 -9 13 -10 13 -10 0z"/>
<path d="M12120 6266 l0 -1006 488 0 c490 0 596 5 720 36 318 77 486 343 432
684 -14 87 -68 199 -123 254 -25 25 -73 59 -108 76 l-62 32 50 28 c132 75 202
224 189 402 -14 198 -106 347 -265 428 -125 63 -130 63 -753 67 l-568 4 0
-1005z m1085 623 c68 -34 98 -89 99 -178 1 -87 -7 -113 -50 -161 -59 -65 -90
-70 -436 -70 l-298 0 0 221 0 220 318 -3 318 -3 49 -26z m20 -777 c100 -46
135 -103 134 -222 0 -41 -6 -92 -13 -112 -21 -60 -72 -115 -134 -145 l-57 -28
-317 -3 -318 -3 0 271 0 271 328 -3 c317 -3 329 -4 377 -26z"/>
<path d="M13860 6265 l0 -1005 205 0 205 0 0 391 0 390 293 -3 292 -3 60 -30
c50 -25 64 -38 85 -80 25 -49 25 -51 28 -357 l3 -308 205 0 204 0 0 303 c0
166 -5 333 -10 370 -20 134 -75 214 -183 261 l-49 22 56 29 c188 95 280 351
216 599 -27 106 -63 169 -141 248 -51 52 -87 78 -152 109 -137 66 -168 68
-779 69 l-538 0 0 -1005z m1068 640 c62 -19 115 -63 144 -119 26 -50 35 -163
19 -223 -17 -62 -68 -124 -126 -153 -50 -25 -51 -25 -372 -28 l-323 -3 0 270
0 271 303 0 c244 0 313 -3 355 -15z"/>
<path d="M15905 6398 c-170 -479 -331 -932 -357 -1005 l-47 -133 221 2 221 3
70 208 70 207 371 0 372 0 64 -210 63 -210 224 0 c125 0 223 4 223 9 0 7 -672
1926 -695 1984 -7 15 -28 17 -249 17 l-241 0 -310 -872z m675 24 c67 -216 120
-395 118 -398 -3 -2 -117 -3 -255 -2 l-249 3 122 380 c67 209 125 389 128 400
3 10 7 17 9 15 2 -3 59 -182 127 -398z"/>
<path d="M17372 6618 c121 -359 273 -810 337 -1003 l118 -350 199 0 199 0 337
995 c185 547 337 998 337 1003 1 4 -96 7 -214 7 l-214 0 -40 -127 c-22 -71
-114 -371 -206 -668 -91 -297 -171 -555 -177 -573 -5 -19 -13 -30 -17 -25 -4
4 -104 320 -222 700 l-214 693 -222 0 -222 0 221 -652z"/>
<path d="M19055 6398 c-170 -479 -331 -932 -357 -1005 l-47 -133 221 2 221 3
70 208 70 207 371 0 372 0 64 -210 63 -210 224 0 c125 0 223 4 223 9 0 7 -672
1926 -695 1984 -7 15 -28 17 -249 17 l-241 0 -310 -872z m675 24 c67 -216 120
-395 118 -398 -3 -2 -117 -3 -255 -2 l-249 3 122 380 c67 209 125 389 128 400
3 10 7 17 9 15 2 -3 59 -182 127 -398z"/>
<path d="M12622 5000 c-296 -41 -481 -241 -522 -561 -5 -46 -10 -91 -10 -101
0 -17 14 -18 184 -18 l185 0 6 48 c19 158 51 220 136 267 51 28 61 30 164 30
94 0 116 -3 150 -22 90 -48 120 -106 120 -233 0 -84 -3 -102 -28 -153 -44 -89
-123 -166 -336 -325 -311 -232 -468 -404 -541 -593 -36 -93 -60 -225 -60 -325
l0 -74 675 0 675 0 0 170 0 170 -430 0 c-337 0 -430 3 -430 13 0 6 13 40 29
74 42 89 155 202 340 340 199 148 362 309 413 408 58 111 72 173 72 310 0 95
-4 134 -22 190 -74 240 -282 374 -601 389 -58 3 -135 1 -169 -4z"/>
<path d="M14045 4999 c-316 -49 -491 -277 -551 -719 -21 -154 -21 -505 0 -659
68 -505 279 -744 656 -744 180 -1 316 52 429 166 74 75 103 117 147 213 79
171 115 385 115 694 0 234 -11 348 -51 506 -74 296 -223 468 -454 528 -76 20
-215 27 -291 15z m220 -332 c82 -47 135 -158 166 -347 19 -116 19 -642 1 -760
-40 -253 -124 -369 -265 -370 -137 0 -209 86 -259 315 -26 116 -37 563 -19
737 26 242 82 376 180 428 52 28 144 26 196 -3z"/>
<path d="M16375 4999 c-240 -37 -424 -192 -481 -404 -18 -67 -17 -217 1 -290
33 -124 92 -217 172 -266 l35 -22 -47 -27 c-168 -98 -251 -242 -262 -450 -16
-320 158 -559 466 -642 61 -16 106 -20 226 -20 120 0 165 4 226 20 226 61 377
205 434 417 25 92 31 266 11 349 -33 139 -130 282 -232 342 l-45 26 59 54 c92
82 142 218 142 384 0 258 -150 450 -402 514 -76 19 -228 27 -303 15z m248
-345 c29 -20 51 -48 72 -88 26 -52 29 -70 29 -146 0 -74 -4 -94 -28 -143 -47
-97 -117 -133 -243 -125 -96 6 -144 38 -188 123 -27 52 -30 68 -30 144 0 104
31 182 88 225 50 39 81 46 175 43 72 -3 88 -7 125 -33z m2 -841 c53 -28 89
-67 117 -128 20 -44 23 -66 23 -170 0 -104 -4 -127 -24 -173 -30 -66 -96 -126
-156 -141 -56 -14 -154 -14 -209 0 -151 38 -226 264 -159 473 20 63 93 139
149 154 64 18 212 9 259 -15z"/>
<path d="M15360 4893 c-25 -118 -88 -205 -176 -245 -60 -26 -166 -48 -236 -48
l-58 0 0 -135 0 -135 205 0 205 0 0 -695 0 -695 190 0 190 0 0 1005 0 1005
-154 0 -155 0 -11 -57z"/>
<path d="M19164 4725 c-16 -7 -148 -133 -294 -279 l-265 -267 77 -72 c42 -40
91 -89 109 -109 l31 -38 -31 -35 c-24 -27 -31 -45 -31 -75 0 -40 0 -40 -39
-40 -40 0 -101 -38 -101 -64 0 -6 32 -43 70 -81 l70 -69 0 107 0 107 112 0
112 0 -72 73 c-39 40 -72 77 -72 82 0 5 122 131 270 280 320 321 308 298 204
405 -76 79 -106 94 -150 75z"/>
<path d="M18450 4227 l0 -107 -37 0 c-21 -1 -162 -3 -313 -6 l-275 -5 -22 -25
c-20 -22 -23 -36 -23 -115 0 -94 14 -141 45 -153 9 -3 79 -6 154 -6 76 0 213
-3 304 -7 l167 -6 0 -106 0 -106 80 80 80 79 -32 33 c-26 27 -40 33 -74 33
l-42 0 -7 74 c-3 41 -3 111 1 155 l7 81 41 0 c34 0 48 6 71 30 l29 31 -77 77
-77 77 0 -108z"/>
</g>
</svg>
